<?xml version="1.0" standalone="no"?>
<!DOCTYPE svg PUBLIC "-//W3C//DTD SVG 20010904//EN"
 "http://www.w3.org/TR/2001/REC-SVG-20010904/DTD/svg10.dtd">
<svg version="1.0" xmlns="http://www.w3.org/2000/svg"
 width="64.000000pt" height="64.000000pt" viewBox="0 0 64.000000 64.000000"
 preserveAspectRatio="xMidYMid meet">
<metadata>
Created by potrace 1.11, written by Peter Selinger 2001-2013
</metadata>
<g transform="translate(0.000000,64.000000) scale(0.100000,-0.100000)"
fill="#000000" stroke="none">
<path d="M254 630 c-93 -21 -181 -92 -223 -180 -36 -76 -36 -191 -1 -265 31
-64 91 -124 155 -155 73 -35 199 -35 270 0 64 31 124 92 155 155 20 41 25 65
24 135 0 73 -4 92 -27 135 -33 63 -51 84 -106 123 -65 47 -169 69 -247 52z
m168 -67 c64 -23 130 -94 153 -164 29 -86 7 -192 -54 -256 -19 -20 -22 -21
-51 -6 -19 9 -49 14 -75 11 l-45 -3 0 36 c0 22 9 48 22 65 12 16 22 30 23 31
1 2 15 -1 32 -6 25 -7 35 -5 52 10 18 17 61 89 61 103 0 8 -94 -5 -120 -18
-14 -6 -26 -21 -28 -34 -4 -27 -2 -27 42 -1 50 29 45 18 -6 -16 -24 -16 -51
-39 -62 -52 l-18 -24 -23 48 c-16 35 -20 55 -14 73 9 27 8 48 -4 68 -8 12 -87
56 -87 49 0 -3 -18 -1 -40 3 -22 4 -43 3 -46 -2 -3 -4 4 -38 16 -73 17 -52 28
-69 52 -81 17 -9 39 -14 49 -11 52 14 88 -82 53 -142 -12 -20 -26 -31 -41 -31
-12 0 -34 -5 -50 -11 -60 -25 -90 -7 -134 74 -46 87 -31 206 37 285 78 91 187
118 306 75z"/>
</g>
</svg>
